PathFileType	4	(X/Y/Z)	D:\Share\Shared_Data\Ergonomics\Sit To Stand Pertubation\S3\S3 Cal 01.trc
DataRate	CameraRate	NumFrames	NumMarkers	Units	OrigDataRate	OrigDataStartFrame	OrigNumFrames	
100	100	10	21	mm	100	52	204
Frame#	Time	R_ASIS			R_Pelvis			V_Sacral			L_Pelvis			L_ASIS			Clavical			R_Acromium			L_Acromium			Sternum			Torso			R_Thigh_Med			R_Thigh_Lat			R_Thigh			R_Shank_Med			R_Shank_Lat			R_Shank			R_Heel			R_Toe			RAJC			RHJC			RKJC			
		X1	Y1	Z1	X2	Y2	Z2	X3	Y3	Z3	X4	Y4	Z4	X5	Y5	Z5	X6	Y6	Z6	X7	Y7	Z7	X8	Y8	Z8	X9	Y9	Z9	X10	Y10	Z10	X11	Y11	Z11	X12	Y12	Z12	X13	Y13	Z13	X14	Y14	Z14	X15	Y15	Z15	X16	Y16	Z16	X17	Y17	Z17	X18	Y18	Z18	X19	Y19	Z19	X20	Y20	Z20	X21	Y21	Z21	

52	0.51	305.52759	941.08002	127.58022	195.0649	954.89563	179.12933	92.263062	991.42163	-13.959225	204.52994	963.63068	-207.72752	306.13324	931.19684	-156.05832	270.75546	1376.2783	-13.976186	187.94437	1426.5586	150.05437	213.28583	1427.1173	-169.50385	303.60593	1303.1613	-8.569931	277.57993	1362.3038	-80.816101	257.18469	468.8902	32.026688	224.93283	457.22885	130.87444	312.53168	662.17932	90.163498	181.13333	105.04576	73.303459	166.664	98.459991	155.74063	164.92929	284.88242	158.01443	110.26069	56.299931	114.7676	327.94925	56.068089	103.78335	173.898665	101.7528755	114.5220445	220.7209384	862.4490784	89.16610362	241.05876	463.059525	81.450564
53	0.52	305.59857	941.0827	127.61774	195.14804	954.91333	179.17871	92.313797	991.4563	-13.964644	204.60097	963.63373	-207.70308	306.23276	931.19342	-156.03719	270.80316	1376.2977	-13.923987	187.96954	1426.5615	150.0827	213.36938	1427.1477	-169.39926	303.67166	1303.1863	-8.5267525	277.63239	1362.3125	-80.8489	256.99564	468.98129	32.047539	224.90433	457.22372	130.89133	312.564	662.16174	90.177544	181.15674	104.98114	73.181709	166.55415	98.432152	155.71939	164.91057	284.88498	158.02174	110.27792	56.312817	114.79454	327.94788	56.061794	103.78081	173.855445	101.706646	114.4505495	220.7757535	862.4584801	89.19349357	240.949985	463.102505	81.4694345
54	0.53	305.67538	941.08765	127.63774	195.19313	954.92297	179.17517	92.366768	991.45721	-13.984903	204.69571	963.64575	-207.64531	306.27591	931.2005	-156.00595	270.86981	1376.3035	-13.869097	188.01195	1426.5551	150.10991	213.45963	1427.1642	-169.34639	303.73145	1303.1951	-8.491683	277.73682	1362.3135	-80.831306	256.97668	468.93979	32.037571	224.90045	457.20844	130.89169	312.62341	662.15802	90.188148	181.16785	104.93967	73.09687	166.52225	98.51503	155.75052	164.93939	284.9046	158.0208	110.28151	56.32729	114.81039	327.96924	56.063126	103.80809	173.84505	101.72735	114.423695	220.849105	862.4656997	89.22493893	240.938565	463.074115	81.4646305
55	0.54	305.71182	941.10327	127.64014	195.29147	954.93127	179.22531	92.429977	991.44391	-13.976339	204.78003	963.6582	-207.62875	306.297	931.22089	-155.94052	270.92795	1376.3311	-13.807547	188.04887	1426.5513	150.14597	213.57283	1427.2177	-169.25166	303.78925	1303.214	-8.4550905	277.78891	1362.366	-80.783813	257.00412	468.99924	32.063469	224.90776	457.1987	130.89803	312.65549	662.18091	90.180115	181.12001	105.05748	73.33165	166.20052	98.408737	154.78937	164.93925	284.9057	158.04512	110.2741	56.315952	114.80125	327.9624	56.065731	103.79648	173.660265	101.7331085	114.06051	220.9049354	862.4900537	89.24167924	240.95594	463.09897	81.4807495
56	0.55	305.76114	941.09448	127.65381	195.34911	954.93365	179.26265	92.474365	991.42633	-13.927131	204.84261	963.66278	-207.65524	306.36993	931.22968	-155.90974	271.02286	1376.3671	-13.724514	188.06355	1426.5205	150.14671	213.66472	1427.2441	-169.20752	303.8602	1303.2396	-8.4154902	277.90768	1362.4026	-80.733124	256.9021	468.90732	32.05135	224.91583	457.14771	130.96806	312.72769	662.15308	90.209885	181.13536	104.97876	73.176041	166.1604	98.509155	154.72574	164.94263	284.90036	158.03815	110.2861	56.315998	114.82319	327.95767	56.057011	103.79575	173.64788	101.7439575	113.9508905	220.9639297	862.4808263	89.24668749	240.908965	463.027515	81.509705
57	0.56	305.82935	941.10321	127.70734	195.3963	954.93457	179.28354	92.523819	991.42761	-13.922192	204.92128	963.68152	-207.64139	306.45346	931.22534	-155.8949	271.09235	1376.3734	-13.710322	188.13068	1426.4994	150.18044	213.77756	1427.2903	-169.12456	303.92853	1303.2662	-8.3770323	277.99478	1362.442	-80.708588	257.08154	469.02606	32.054497	224.95451	457.14529	130.98431	312.8483	662.13177	90.187645	181.15302	105.07721	73.338905	166.50792	98.389999	155.57594	164.95854	284.90482	158.03488	110.29042	56.334667	114.79224	327.96893	56.061371	103.77261	173.83047	101.7336045	114.4574225	221.0278409	862.4752056	89.29267792	241.018025	463.085675	81.5194035
58	0.57	305.87317	941.11597	127.7294	195.44974	954.92786	179.32933	92.567108	991.40729	-13.881104	204.98482	963.68555	-207.62352	306.49017	931.2392	-155.84781	271.16104	1376.4105	-13.650133	188.19041	1426.501	150.18933	213.85918	1427.319	-169.09901	304.01144	1303.2947	-8.3441839	278.06921	1362.4678	-80.676865	256.96384	469.01825	32.039448	225.02884	457.18619	130.94617	312.91263	662.11737	90.204636	181.13361	104.95472	73.124016	166.12469	98.475777	154.5818	164.98534	284.90649	158.04132	110.27534	56.33337	114.79631	327.97159	56.050362	103.79301	173.62915	101.7152485	113.852908	221.0863555	862.4825058	89.32127413	240.99634	463.10222	81.492809
59	0.58	305.89948	941.11279	127.73296	195.50385	954.93958	179.37987	92.612747	991.3844	-13.864835	205.06453	963.68414	-207.55013	306.53064	931.24457	-155.79871	271.25818	1376.4224	-13.608596	188.27126	1426.4851	150.23367	213.95038	1427.3666	-169.047	304.0748	1303.3131	-8.3156662	278.17374	1362.4807	-80.630882	257.0517	469.15506	32.034462	225.03964	457.13345	131.01535	312.97137	662.09723	90.190857	181.1609	105.05095	73.317726	166.62294	98.484894	155.67982	164.99928	284.90759	158.04298	110.27979	56.336155	114.7877	327.97223	56.0471	103.7858	173.89192	101.767922	114.498773	221.1292111	862.485023	89.32629489	241.04567	463.144255	81.524906
60	0.59	305.94629	941.11896	127.75466	195.55176	954.92749	179.40529	92.646324	991.37317	-13.812926	205.10924	963.69336	-207.51839	306.57782	931.25916	-155.77344	271.33832	1376.405	-13.602037	188.29927	1426.4419	150.24535	214.0237	1427.3799	-169.01852	304.16608	1303.3286	-8.3043203	278.26962	1362.5269	-80.609718	256.91449	468.98172	32.074432	225.056	457.12268	131.02853	313.0235	662.09851	90.216171	181.14726	104.94421	73.131943	166.60715	98.506363	155.69431	165.00163	284.90311	158.0387	110.29362	56.342987	114.79217	327.96948	56.055119	103.78021	173.877205	101.7252865	114.4131265	221.1834017	862.4842443	89.34653748	240.985245	463.0522	81.551481
61	0.6	306.01459	941.1073	127.80185	195.60519	954.93604	179.43576	92.681061	991.383	-13.793026	205.13911	963.69171	-207.53111	306.6597	931.24707	-155.73979	271.39969	1376.3962	-13.55124	188.40408	1426.4653	150.31126	214.12016	1427.407	-168.95963	304.2572	1303.3511	-8.2783861	278.36856	1362.5504	-80.592514	257.0733	469.03592	32.104027	225.14311	457.09885	131.07928	313.06763	662.08844	90.24324	181.12447	105.04684	73.349892	166.07246	98.477867	154.54544	165.01932	284.90033	158.05214	110.25858	56.351749	114.788	327.96564	56.033985	103.7988	173.598465	101.7623535	113.947666	221.2382451	862.4755623	89.3872176	241.108205	463.067385	81.5916535
